<?xml version="1.0" encoding="UTF-8" standalone="no"?><!DOCTYPE svg PUBLIC "-//W3C//DTD SVG 1.1//EN" "http://www.w3.org/Graphics/SVG/1.1/DTD/svg11.dtd"><svg width="100%" height="100%" viewBox="0 0 300 100" version="1.1" xmlns="http://www.w3.org/2000/svg" xmlns:xlink="http://www.w3.org/1999/xlink" xml:space="preserve" xmlns:serif="http://www.serif.com/" style="fill-rule:evenodd;clip-rule:evenodd;stroke-linecap:round;stroke-linejoin:round;stroke-miterlimit:2.00581;"><g transform="matrix(-0.00293994,0.135077,-0.135077,-0.00293994,376.447,-105.793)"><path d="M1070.1,2628.39C1059.98,2607.85 865.485,2267.67 906.482,2294.58C947.478,2321.49 1104.41,2433.69 1104.41,2433.69C1104.41,2433.69 746.752,1715.15 1175.05,2151.79C1391.14,2372.08 1394.48,2698 1397,2699.97" style="fill:none;stroke:black;stroke-width:68.75px;"/></g><g transform="matrix(-0.00293994,0.135077,-0.135077,-0.00293994,376.447,-105.793)"><path d="M875.505,2436.38C875.505,2436.38 1384.64,2425.59 1387.99,2423.65" style="fill:none;stroke:black;stroke-width:68.75px;"/></g><g transform="matrix(-0.00290605,0.133521,-0.110536,-0.0024058,328.716,-106.658)"><path d="M1006.54,2049.95C1055.6,2060.33 1332.42,2196.13 1286.33,2064.59C1247.87,1954.84 1031.43,1904.45 1028.93,1904.34C983.964,1902.37 989.807,1924.86 1032.7,1926.72C1061.86,1927.99 1171.1,1892.11 1141.1,1867.48C1111.11,1842.86 1046.44,1817.82 1033.78,1812.95C1021.11,1808.09 1319.2,1951.42 1283.68,1867.48C1248.15,1783.54 1063.75,1653 1073.11,1684.52C1082.47,1716.04 1261.77,1690.13 1273.37,1677.52C1284.97,1664.91 1124.21,1538.15 1106.41,1536.07C1088.61,1534 1261.48,1601.78 1302.35,1572.32C1316.15,1562.37 1251.35,1493.47 1228.07,1474.49C1155.75,1415.54 1126.37,1402.56 1126.37,1402.56C1126.37,1402.56 1102.7,1384.67 1126.37,1402.56C1143.1,1415.2 1315.74,1424.33 1345.35,1409.62" style="fill:none;stroke:black;stroke-width:68.1px;"/></g><g transform="matrix(-0.0252587,0.132727,-0.086173,-0.0163992,318.345,-82.0543)"><path d="M1124.12,1268.88C1124.02,1199.52 1031.07,936.717 1024.59,1004.06C1024.21,1008.02 1304.43,1337.17 1309.55,1344.21C1314.67,1351.26 1130.98,1155.49 1201.04,753.427" style="fill:none;stroke:black;stroke-width:68.75px;"/></g><g transform="matrix(-0.00293994,0.135077,-0.135077,-0.00293994,381.079,-116.023)"><path d="M1610.85,2522.61C1543.18,2408.34 1556.15,2380.04 1556.15,2380.04" style="fill:none;stroke:black;stroke-width:68.75px;"/></g><g transform="matrix(-0.00293994,0.135077,-0.135077,-0.00293994,368.289,-119.715)"><path d="M1564.56,2194.56C1489.75,2049.2 1470.93,1344.18 1562.56,958.01" style="fill:none;stroke:black;stroke-width:68.75px;"/></g></svg>