<?xml version="1.0" encoding="UTF-8" standalone="no"?>
<svg width="1440px" height="1024px" viewBox="0 0 1440 1024" version="1.1" xmlns="http://www.w3.org/2000/svg" xmlns:xlink="http://www.w3.org/1999/xlink">
    <!-- Generator: Sketch 3.8.3 (29802) - http://www.bohemiancoding.com/sketch -->
    <title>Armada BG</title>
    <desc>Created with Sketch.</desc>
    <defs></defs>
    <g id="Page-1" stroke="none" stroke-width="1" fill="none" fill-rule="evenodd">
        <g id="Armada-BG">
            <g>
                <polygon id="Triangle-1" fill="#87DBC9" points="0 85 175 85 87.5 260"></polygon>
                <polygon id="Triangle-1-Copy" fill="#68AE9F" points="87 260 262 260 174.5 435"></polygon>
                <polygon id="Triangle-1-Copy-2" fill="#4F6A64" points="374 85 549 85 461.5 260"></polygon>
                <polygon id="Triangle-1-Copy-3" fill="#3CC2A7" points="262 260 437 260 349.5 435"></polygon>
                <polygon id="Triangle-1-Copy-6" fill="#68AE9F" points="0 0 85 1.38048303e-14 42.5 85"></polygon>
                <polygon id="Triangle-1-Copy-9" fill="#3CC2A7" points="85 0 170 1.38048303e-14 127.5 85"></polygon>
                <polygon id="Triangle-1-Copy-12" fill="#87DBC9" points="170 0 255 1.38048303e-14 212.5 85"></polygon>
                <polygon id="Triangle-1-Copy-13" fill="#3CC2A7" points="255 0 340 1.38048303e-14 297.5 85"></polygon>
                <polygon id="Triangle-1-Copy-14" fill="#87DBC9" points="340 0 425 1.38048303e-14 382.5 85"></polygon>
                <polygon id="Triangle-1-Copy-15" fill="#4F6A64" points="507 0 592 1.38048303e-14 549.5 85"></polygon>
                <polygon id="Triangle-1-Copy-16" fill="#68AE9F" points="674 0 759 1.38048303e-14 716.5 85"></polygon>
                <polygon id="Triangle-1-Copy-17" fill="#4F6A64" points="759 0 844 1.38048303e-14 801.5 85"></polygon>
                <polygon id="Triangle-1-Copy-18" fill="#68AE9F" points="844 0 929 1.38048303e-14 886.5 85"></polygon>
                <polygon id="Triangle-1-Copy-19" fill="#3CC2A7" points="1033 0 1118 1.38048303e-14 1075.5 85"></polygon>
                <polygon id="Triangle-1-Copy-20" fill="#87DBC9" points="1222 0 1307 1.38048303e-14 1264.5 85"></polygon>
                <polygon id="Triangle-1-Copy-4" fill="#87DBC9" points="549 85 724 85 636.5 260"></polygon>
                <polygon id="Triangle-1-Copy-5" fill="#68AE9F" points="724 260 899 260 811.5 435"></polygon>
                <polygon id="Triangle-1-Copy-21" fill="#3CC2A7" points="495 206 604 206 549.5 315"></polygon>
                <polygon id="Triangle-1-Copy-28" fill="#68AE9F" points="397 348 654 348 525.5 605"></polygon>
                <polygon id="Triangle-1-Copy-29" fill="#87DBC9" points="630 433 974 433 802 777"></polygon>
                <polygon id="Triangle-1-Copy-22" fill="#68AE9F" points="1093 52 1247 52 1170 206"></polygon>
                <polygon id="Triangle-1-Copy-23" fill="#3CC2A7" points="811 146 926.306122 146 868.653061 255"></polygon>
                <polygon id="Triangle-1-Copy-25" fill="#4F6A64" points="887 315 1002.30612 315 944.653061 424"></polygon>
                <polygon id="Triangle-1-Copy-24" fill="#4F6A64" points="708 118 823.306122 118 765.653061 227"></polygon>
                <polygon id="Triangle-1-Copy-26" fill="#68AE9F" points="182 97 297.306122 97 239.653061 206"></polygon>
                <polygon id="Triangle-1-Copy-27" fill="#4F6A64" points="282 151 397.306122 151 339.653061 260"></polygon>
                <polygon id="Triangle-1-Copy-7" fill="#87DBC9" points="901 85 1076 85 988.5 260"></polygon>
                <polygon id="Triangle-1-Copy-8" fill="#68AE9F" points="1265 85 1440 85 1352.5 260"></polygon>
                <polygon id="Triangle-1-Copy-10" fill="#3CC2A7" points="988 260 1163 260 1075.5 435"></polygon>
                <polygon id="Triangle-1-Copy-11" fill="#87DBC9" points="1178 260 1353 260 1265.5 435"></polygon>
            </g>
        </g>
    </g>
</svg>